<?xml version="1.0"?>
<svg xmlns="http://www.w3.org/2000/svg" xmlns:xlink="http://www.w3.org/1999/xlink" xmlns:svgjs="http://svgjs.com/svgjs" version="1.1" width="512" height="512" x="0" y="0" viewBox="0 0 512 512" style="enable-background:new 0 0 512 512" xml:space="preserve" class=""><g><linearGradient xmlns="http://www.w3.org/2000/svg" id="SVGID_1_" gradientUnits="userSpaceOnUse" x1="256" x2="256" y1="512" y2="0"><stop stop-opacity="1" stop-color="#2fa4ff" offset="0"/><stop stop-opacity="1" stop-color="#00b5ff" offset="1"/></linearGradient><linearGradient xmlns="http://www.w3.org/2000/svg" id="lg1"><stop stop-opacity="1" stop-color="#ffffff" offset="0"/><stop stop-opacity="1" stop-color="#ffffff" offset="0.7297297297297297"/><stop stop-opacity="1" stop-color="#ffffff" offset="1"/></linearGradient><linearGradient xmlns="http://www.w3.org/2000/svg" xmlns:xlink="http://www.w3.org/1999/xlink" id="SVGID_2_" gradientUnits="userSpaceOnUse" x1="256" x2="256" xlink:href="#lg1" y1="421" y2="211"/><linearGradient xmlns="http://www.w3.org/2000/svg" xmlns:xlink="http://www.w3.org/1999/xlink" id="SVGID_3_" gradientUnits="userSpaceOnUse" x1="256" x2="256" xlink:href="#lg1" y1="181" y2="91"/><g xmlns="http://www.w3.org/2000/svg"><path d="m256 512c-141.538 0-256-114.344-256-256 0-141.535 114.344-256 256-256 141.538 0 256 114.344 256 256 0 141.535-114.344 256-256 256z" fill="url(#SVGID_1_)" data-original="url(#SVGID_1_)" style=""/><path d="m286 421h-60c-8.284 0-15-6.716-15-15v-180c0-8.284 6.716-15 15-15h60c8.284 0 15 6.716 15 15v180c0 8.284-6.716 15-15 15z" fill="url(#SVGID_2_)" data-original="url(#SVGID_2_)" style=""/><path d="m256 181c-24.813 0-45-20.187-45-45s20.187-45 45-45 45 20.187 45 45-20.187 45-45 45z" fill="url(#SVGID_3_)" data-original="url(#SVGID_3_)" style=""/></g></g></svg>
